<svg xmlns="http://www.w3.org/2000/svg" viewBox="0 0 2238 732">
  <path d="M810.1 178.684l1281.96-78.116 28.28 464.116L838.39 642.8z" fill="#fec240"></path>
  <path d="M984.4 307.1l43-2.6 11.9 195.6-43 2.6-11.9-195.6zm161.8 29.9l-59.5 3.6-2.4-39.7 162.1-9.9 2.4 39.7-59.5 3.6 9.5 156-43 2.6-9.6-155.9zm116.2 74.6c-2.6-42.8 25.7-79.8 69.3-82.5 50-3 75.3 34.4 77.9 76.9.2 3.4.2 7.3.1 11.2l-104.2 6.4c5.4 19 19.4 28.3 38.4 27.1 14.3-.9 24.3-6 35.4-17.6l25.6 20c-12.9 18.2-32.4 30-59.5 31.7-45 2.7-80.1-26.8-83-73.2zm104.9-18.5c-3.7-18.9-15.6-31-33.5-29.9-17.6 1.1-28.3 14.3-30.5 33.8l64-3.9zm83.2 7c-2.6-42.8 25.7-79.8 69.3-82.5 50-3 75.3 34.4 77.9 76.9.2 3.4.2 7.3.1 11.2l-104.2 6.4c5.4 19 19.4 28.3 38.4 27.1 14.3-.9 24.3-6 35.4-17.6l25.6 20c-12.9 18.2-32.4 30-59.5 31.7-45 2.8-80.1-26.8-83-73.2zm104.9-18.4c-3.7-18.9-15.6-31-33.5-29.9-17.6 1.1-28.3 14.3-30.5 33.8l64-3.9zm85.9-68.7l42.5-2.6 1.3 21.2c9-13.2 20.9-25.4 42.4-26.7 32.1-2 52.2 18.1 54.3 52.5l5.9 97-42.5 2.6-5.1-83.6c-1.2-20.1-11.4-29.9-27.6-28.9s-25.9 12-24.7 32.1l5.1 83.6-42.5 2.6-9.1-149.8zm187.1 119.1l16.5-29.1c16.9 10.8 34.3 15.9 48.3 15 12.3-.7 17.6-5.6 17.2-12.8-.6-9.2-15.3-11.4-32.1-15.4-21.3-4.9-45.7-13.2-47.5-42.8-1.9-30.5 21.7-49 51.9-50.8 19-1.2 40.1 4 57 13.9l-14.4 30.3c-15.3-7.8-30.5-12.2-41.4-11.5-10.3.6-15.4 5.4-15 11.9.5 8.4 15 11.4 31.6 16 21.4 5.7 46.3 14.3 48 42.2 2 33.3-21.9 49.9-54.3 51.8-21.1 1.3-45-4.3-65.8-18.7z" fill="#fff" stroke="#fff" stroke-width="14" stroke-miterlimit="10"></path>
  <path d="M587.6 310c-10.1-9.6-23.4-14.7-37.5-14.7-1.2 0-2.4 0-3.6.1-15.6.9-29.3 7.8-38.8 19.3-9.3 11.3-13.9 26.3-12.9 42.2 1 15.6 7.4 29.9 18.2 40.1 11 10.4 25.6 15.6 41.1 14.6 31.5-1.9 53.7-28.3 51.7-61.5-.9-15.7-7.4-29.9-18.2-40.1zm266.4 6.2L695.6 112.9 14.8 154.3l28.3 464.1L723.9 577 857 362.6l14.7-24-17.7-22.4zM385.9 438.5c-24.2 23.2-53.2 36-86 38-2.7.2-5.3.2-8 .2-27.9 0-53.5-9.1-72.7-25.9-20.8-18.3-33.3-45-35.1-75.1-1.8-28.9 7.6-56.5 26.3-77.8 19-21.6 46-34.5 76.1-36.3 33.9-2.1 57.9 4.7 82.9 23.4l3.6 2.7-30.9 42.2-3.6-2.7c-15.3-11.2-28.4-17.5-50.4-16.2-14.1.9-26.9 7.7-36.2 19.2-9.3 11.6-13.9 26.5-13 42.1 1 16.5 7.5 31.1 18.3 41.2 10.8 10 25.4 15 41.1 14.1 14.2-.9 26.7-5 36.2-12.1l-1.3-21.6-44.1 2.7-2.9-46.8 95.5-5.8 5.7 93.1-1.5 1.4zm248-14c-19.3 21.6-46.8 34.5-77.3 36.4-2.5.2-5.1.2-7.6.2-27.7 0-53.5-9.4-73.3-26.8-21.2-18.7-33.9-45.1-35.7-74.2-1.8-28.9 7.7-56.6 26.7-77.8 19.3-21.6 46.8-34.5 77.3-36.4 30.6-1.9 59.3 7.6 80.9 26.5 21.2 18.7 33.9 45.1 35.7 74.2 1.8 29-7.7 56.7-26.7 77.9z"></path>
  <path d="M188.5 375.8c-3.4-55.6 37.2-103.8 96.4-107.4 35.2-2.1 57 6.1 78.5 22.1l-25.1 34.4c-15.9-11.7-29.7-18.1-52.4-16.7-31.3 1.9-54.5 31.1-52.4 64.9 2.2 35.8 28.4 60.5 63 58.4 15.7-1 29.4-5.7 39.8-14.2l-1.7-27.9-43.3 2.6-2.3-37.2 85-5.2 5.2 85c-19.1 18.3-45.9 33.9-81.7 36.1-60.9 3.7-105.4-36.5-109-94.9zm259.6-14.4c-3.4-55.6 37.7-103.8 98.1-107.5s106.4 38.7 109.9 94.9c3.4 55.6-37.7 103.8-98.1 107.5-60.4 3.6-106.5-38.7-109.9-94.9zm162.9-9.9c-2-33.5-28.3-60-63-57.9s-57 31-54.9 65.1c2 33.5 28.3 60 63 57.9 34.6-2.2 57-31 54.9-65.1z" fill="#fff" stroke="#fff" stroke-width="14" stroke-miterlimit="10"></path>
</svg>
